<?xml version='1.0' encoding='utf-8'?>
<mxfile><diagram name="Plano de Emergencia"><mxGraphModel dx="1122" dy="793" grid="1" gridSize="10" guides="1" tooltips="1" connect="1" arrows="1" fold="1" page="1" pageScale="1" pageWidth="800" pageHeight="600"><root><mxCell id="0" /><mxCell id="1" parent="0" /><mxCell id="2" parent="1" style="rounded=0;strokeColor=#000000;fillColor=#F5F5F5;" vertex="1"><mxGeometry x="50" y="50" width="600" height="400" as_="geometry" /></mxCell><mxCell id="3" parent="1" style="strokeColor=#FF0000;fillColor=#FFAAAA;" vertex="1"><mxGeometry x="300" y="450" width="50" height="10" as_="geometry" /></mxCell><mxCell id="4" parent="1" style="shape=ellipse;strokeColor=#FF0000;fillColor=#FF5555;" vertex="1"><mxGeometry x="100" y="100" width="20" height="20" as_="geometry" /></mxCell><mxCell id="5" parent="1" style="edgeStyle=elbowEdgeStyle;strokeColor=#00AA00;" edge="1" source="4" target="3"><mxGeometry relative="1" as_="geometry" /></mxCell></root></mxGraphModel></diagram></mxfile>